<svg xmlns="http://www.w3.org/2000/svg" viewBox="0 0 800 280" width="800" height="280">
  <rect width="800" height="280" fill="#13161e" rx="8"/>
  <!-- Document lines suggesting reference material -->
  <rect x="80" y="30" width="260" height="220" rx="6" fill="#0d0f14" stroke="#7c6af7" stroke-width="1.5"/>
  <text x="210" y="60" text-anchor="middle" fill="#a89df8" font-family="monospace" font-size="12" font-weight="bold">Lesson Notes</text>
  <rect x="100" y="72" width="220" height="2" rx="1" fill="#1e2330"/>
  <rect x="100" y="90" width="180" height="8" rx="2" fill="#1e2330"/>
  <rect x="100" y="106" width="200" height="8" rx="2" fill="#1e2330"/>
  <rect x="100" y="122" width="160" height="8" rx="2" fill="#1e2330"/>
  <rect x="100" y="146" width="220" height="2" rx="1" fill="#1e2330"/>
  <rect x="100" y="162" width="190" height="8" rx="2" fill="#1e2330"/>
  <rect x="100" y="178" width="170" height="8" rx="2" fill="#1e2330"/>
  <rect x="100" y="194" width="210" height="8" rx="2" fill="#1e2330"/>
  <rect x="100" y="210" width="150" height="8" rx="2" fill="#1e2330"/>
  <!-- Tags on the side -->
  <rect x="460" y="50" width="120" height="30" rx="5" fill="#0d0f14" stroke="#7c6af7" stroke-width="1.5"/>
  <text x="520" y="70" text-anchor="middle" fill="#a89df8" font-family="monospace" font-size="10">Foundations</text>
  <rect x="460" y="100" width="120" height="30" rx="5" fill="#0d0f14" stroke="#4b3fd4" stroke-width="1.5"/>
  <text x="520" y="120" text-anchor="middle" fill="#7c6af7" font-family="monospace" font-size="10">Building</text>
  <rect x="460" y="150" width="120" height="30" rx="5" fill="#0d0f14" stroke="#4b3fd4" stroke-width="1.5"/>
  <text x="520" y="170" text-anchor="middle" fill="#7c6af7" font-family="monospace" font-size="10">Shipping</text>
  <rect x="460" y="200" width="120" height="30" rx="5" fill="#0d0f14" stroke="#7c6af7" stroke-width="1.5"/>
  <text x="520" y="220" text-anchor="middle" fill="#a89df8" font-family="monospace" font-size="10">Business</text>
  <!-- Connectors -->
  <line x1="342" y1="110" x2="458" y2="115" stroke="#1e2330" stroke-width="1" stroke-dasharray="3 3"/>
  <line x1="342" y1="155" x2="458" y2="165" stroke="#1e2330" stroke-width="1" stroke-dasharray="3 3"/>
  <text x="400" y="265" text-anchor="middle" fill="#7a7f94" font-size="12" font-family="monospace">Reference material for every lesson</text>
</svg>
